<?xml version="1.0" standalone="no"?>
<!DOCTYPE svg PUBLIC "-//W3C//DTD SVG 20010904//EN"
 "http://www.w3.org/TR/2001/REC-SVG-20010904/DTD/svg10.dtd">
<svg version="1.0" xmlns="http://www.w3.org/2000/svg"
 width="512.000000pt" height="512.000000pt" viewBox="0 0 512.000000 512.000000"
 preserveAspectRatio="xMidYMid meet">
<metadata>
Created by potrace 1.11, written by Peter Selinger 2001-2013
</metadata>
<g transform="translate(0.000000,512.000000) scale(0.100000,-0.100000)"
fill="#000000" stroke="none">
<path d="M2369 5116 c-2 -2 -34 -6 -70 -10 -170 -16 -411 -69 -584 -129 -709
-247 -1287 -811 -1550 -1513 -36 -95 -98 -303 -109 -361 -2 -15 -9 -53 -15
-83 -29 -159 -36 -244 -35 -470 0 -113 4 -234 8 -270 5 -36 10 -72 11 -80 15
-121 67 -336 116 -478 138 -401 392 -782 716 -1074 347 -312 840 -548 1288
-614 22 -3 51 -8 65 -10 120 -20 464 -26 614 -11 623 62 1234 376 1651 849
131 148 254 323 329 468 22 41 47 89 56 105 24 45 43 95 27 71 -97 -146 -278
-343 -412 -449 -280 -220 -616 -361 -965 -404 -81 -10 -351 -10 -447 -1 -481
49 -950 305 -1267 693 -188 229 -299 450 -382 760 -5 17 -32 158 -39 200 -10
66 -14 385 -5 460 27 221 80 410 167 598 99 213 221 387 392 557 99 98 286
250 309 250 6 0 12 4 14 8 5 13 175 106 255 140 68 29 107 45 113 47 3 1 44
14 92 29 94 29 95 29 208 52 121 24 194 29 390 28 171 -1 291 -15 425 -48 398
-99 757 -323 1012 -631 97 -117 95 -114 122 -157 27 -44 37 -50 18 -10 -85
173 -121 237 -198 352 -183 275 -417 509 -701 704 -53 36 -100 66 -104 66 -4
0 -15 6 -23 14 -20 18 -257 137 -331 166 -142 57 -380 128 -490 146 -14 2 -38
6 -55 9 -16 3 -50 8 -75 11 -25 3 -56 8 -70 11 -28 5 -466 14 -471 9z"/>
<path d="M3645 3824 c-49 -7 -128 -25 -175 -40 -93 -28 -300 -122 -300 -136 0
-4 -5 -8 -10 -8 -10 0 -94 -59 -149 -104 -52 -43 -145 -143 -195 -211 -125
-166 -207 -358 -240 -565 -13 -80 -15 -336 -3 -385 2 -11 8 -40 13 -65 4 -25
8 -47 9 -50 71 -275 222 -516 433 -689 162 -132 351 -222 564 -267 88 -19 341
-26 428 -12 154 25 264 60 392 124 255 128 449 325 577 584 70 142 70 150 -2
84 -114 -102 -274 -162 -431 -162 -254 0 -486 155 -584 390 -40 95 -43 113
-48 230 -7 185 54 337 188 470 60 60 96 86 160 117 117 56 178 69 305 67 162
-4 293 -56 415 -166 l57 -51 -11 33 c-26 74 -114 235 -171 310 -245 326 -617
514 -1018 515 -63 0 -154 -5 -204 -13z"/>
</g>
</svg>
