<?xml version="1.0" standalone="no"?>
<!DOCTYPE svg PUBLIC "-//W3C//DTD SVG 20010904//EN"
 "http://www.w3.org/TR/2001/REC-SVG-20010904/DTD/svg10.dtd">
<svg version="1.0" xmlns="http://www.w3.org/2000/svg"
 width="128.000000pt" height="128.000000pt" viewBox="0 0 128.000000 128.000000"
 preserveAspectRatio="xMidYMid meet">
<metadata>
Created by potrace 1.14, written by Peter Selinger 2001-2017
</metadata>
<g transform="translate(0.000000,128.000000) scale(0.100000,-0.100000)"
fill="#000000" stroke="none">
<path d="M203 1219 c-46 -29 -52 -64 -50 -297 l2 -202 -32 -6 c-44 -8 -83 -49
-83 -86 0 -26 47 -124 147 -308 80 -145 210 -244 358 -271 224 -41 434 63 548
271 127 234 149 283 143 318 -6 37 -38 71 -66 72 -41 1 -42 10 -42 231 -1 234
-5 256 -60 285 -49 25 -79 17 -211 -61 l-128 -75 -89 0 c-69 0 -97 4 -122 19
-18 10 -76 44 -127 75 -105 62 -137 68 -188 35z"/>
</g>
</svg>
