<svg width="24" height="26" viewBox="0 0 24 26" fill="none" xmlns="http://www.w3.org/2000/svg">
<path d="M8.02742 19.8419C8.02742 19.9387 7.91613 20.0161 7.77581 20.0161C7.61613 20.0306 7.50484 19.9532 7.50484 19.8419C7.50484 19.7452 7.61613 19.6677 7.75645 19.6677C7.90161 19.6532 8.02742 19.7306 8.02742 19.8419ZM6.52258 19.6242C6.48871 19.721 6.58548 19.8323 6.73065 19.8613C6.85645 19.9097 7.00161 19.8613 7.03065 19.7645C7.05968 19.6677 6.96774 19.5565 6.82258 19.5129C6.69677 19.479 6.55645 19.5274 6.52258 19.6242ZM8.66129 19.5419C8.52097 19.5758 8.42419 19.6677 8.43871 19.779C8.45323 19.8758 8.57903 19.9387 8.72419 19.9048C8.86452 19.871 8.96129 19.779 8.94677 19.6823C8.93226 19.5903 8.80161 19.5274 8.66129 19.5419ZM11.8452 1C5.13387 1 0 6.09516 0 12.8065C0 18.1726 3.37742 22.7645 8.20161 24.3806C8.82097 24.4919 9.03871 24.1097 9.03871 23.7952C9.03871 23.4952 9.02419 21.8403 9.02419 20.8242C9.02419 20.8242 5.6371 21.55 4.92581 19.3823C4.92581 19.3823 4.37419 17.9742 3.58065 17.6113C3.58065 17.6113 2.47258 16.8516 3.65806 16.8661C3.65806 16.8661 4.8629 16.9629 5.52581 18.1145C6.58548 19.9823 8.36129 19.4452 9.05323 19.1258C9.16452 18.3516 9.47903 17.8145 9.82742 17.4952C7.12258 17.1952 4.39355 16.8032 4.39355 12.1484C4.39355 10.8177 4.76129 10.15 5.53548 9.29839C5.40968 8.98387 4.99839 7.6871 5.66129 6.0129C6.67258 5.69839 9 7.31935 9 7.31935C9.96774 7.04839 11.0081 6.90806 12.0387 6.90806C13.0694 6.90806 14.1097 7.04839 15.0774 7.31935C15.0774 7.31935 17.4048 5.69355 18.4161 6.0129C19.079 7.69194 18.6677 8.98387 18.5419 9.29839C19.3161 10.1548 19.7903 10.8226 19.7903 12.1484C19.7903 16.8177 16.9403 17.1903 14.2355 17.4952C14.6806 17.8774 15.0581 18.6032 15.0581 19.7403C15.0581 21.371 15.0435 23.3887 15.0435 23.7855C15.0435 24.1 15.2661 24.4823 15.8806 24.371C20.7194 22.7645 24 18.1726 24 12.8065C24 6.09516 18.5565 1 11.8452 1ZM4.70323 17.6887C4.64032 17.7371 4.65484 17.8484 4.7371 17.9403C4.81452 18.0177 4.92581 18.0516 4.98871 17.9887C5.05161 17.9403 5.0371 17.829 4.95484 17.7371C4.87742 17.6597 4.76613 17.6258 4.70323 17.6887ZM4.18065 17.2968C4.14677 17.3597 4.19516 17.4371 4.29194 17.4855C4.36935 17.5339 4.46613 17.5194 4.5 17.4516C4.53387 17.3887 4.48548 17.3113 4.38871 17.2629C4.29194 17.2339 4.21452 17.2484 4.18065 17.2968ZM5.74839 19.0194C5.67097 19.0823 5.7 19.2274 5.81129 19.3194C5.92258 19.4306 6.0629 19.4452 6.12581 19.3677C6.18871 19.3048 6.15968 19.1597 6.0629 19.0677C5.95645 18.9565 5.81129 18.9419 5.74839 19.0194ZM5.19677 18.3081C5.11935 18.3565 5.11935 18.4823 5.19677 18.5935C5.27419 18.7048 5.40484 18.7532 5.46774 18.7048C5.54516 18.6419 5.54516 18.5161 5.46774 18.4048C5.4 18.2935 5.27419 18.2452 5.19677 18.3081Z" fill="#263238"/>
</svg>
