<svg width="204" height="271" viewBox="0 0 204 271" fill="none" xmlns="http://www.w3.org/2000/svg">
<path fill-rule="evenodd" clip-rule="evenodd" d="M174.977 36.9908C185.581 36.9908 194.177 28.3946 194.177 17.7908C194.177 10.346 189.94 3.89082 183.745 0.705383C195.049 2.17935 203.777 11.8457 203.777 23.5508C203.777 36.2754 193.462 46.5908 180.737 46.5908C169.032 46.5908 159.366 37.8624 157.892 26.5593C161.077 32.7536 167.532 36.9908 174.977 36.9908ZM99.777 30.5908H103.777V50.5908H127.777V54.5908H103.777V130.591H127.777V134.591H103.777V255.295C112.368 259.238 120.276 264.412 127.277 270.591L103.777 270.591H99.777H55.777H51.777L0.277222 270.591C14.3756 258.147 32.157 249.78 51.777 247.333V198.591H27.777V194.591H51.777V118.591H55.777V138.591H79.777V142.591H55.777V246.919C58.4149 246.702 61.083 246.591 63.777 246.591C76.5078 246.591 88.6598 249.069 99.777 253.569V74.5908H75.777V70.5908H99.777V30.5908ZM147.777 78.5908H151.777V110.591H175.777V114.591H151.777V186.591H175.777V190.591H151.777V270.591H147.777V166.591H123.777V162.591H147.777V102.591H123.777V98.5908H147.777V78.5908Z" fill="#BCCBD1"/>
</svg>
