<svg width="24" height="25" viewBox="0 0 24 25" fill="none" xmlns="http://www.w3.org/2000/svg">
<g clip-path="url(#clip0)">
<path d="M5.20062 21.3336H0.846875V7.31328H5.20062V21.3336ZM3.02141 5.40078C1.62922 5.40078 0.5 4.24765 0.5 2.85547C0.5 2.18675 0.765647 1.54542 1.2385 1.07256C1.71136 0.599708 2.35269 0.334061 3.02141 0.334061C3.69012 0.334061 4.33145 0.599708 4.80431 1.07256C5.27716 1.54542 5.54281 2.18675 5.54281 2.85547C5.54281 4.24765 4.41312 5.40078 3.02141 5.40078ZM21.4953 21.3336H17.1509V14.5086C17.1509 12.882 17.1181 10.7961 14.8873 10.7961C12.6237 10.7961 12.2769 12.5633 12.2769 14.3914V21.3336H7.92781V7.31328H12.1034V9.22577H12.1644C12.7456 8.12421 14.1655 6.96171 16.2837 6.96171C20.69 6.96171 21.5 9.86327 21.5 13.632V21.3336H21.4953Z" fill="#263238"/>
</g>
<defs>
<clipPath id="clip0">
<rect width="21" height="24" fill="white" transform="translate(0.5 0.333344)"/>
</clipPath>
</defs>
</svg>
