<svg width="24" height="20" viewBox="0 0 24 20" fill="none" xmlns="http://www.w3.org/2000/svg">
<path d="M21.533 5.11169C21.5482 5.32488 21.5482 5.53811 21.5482 5.7513C21.5482 12.2538 16.599 19.7462 7.5533 19.7462C4.76648 19.7462 2.17767 18.9391 0 17.5381C0.395953 17.5838 0.776625 17.599 1.18781 17.599C3.48727 17.599 5.60405 16.8224 7.29441 15.4975C5.13197 15.4518 3.31978 14.0356 2.69541 12.0863C3 12.132 3.30455 12.1624 3.62437 12.1624C4.06598 12.1624 4.50764 12.1015 4.91878 11.995C2.66498 11.5381 0.974578 9.55839 0.974578 7.16753V7.10664C1.62937 7.47213 2.39086 7.70055 3.19791 7.73097C1.87303 6.8477 1.00505 5.34011 1.00505 3.63452C1.00505 2.72083 1.24866 1.88327 1.67508 1.1523C4.09641 4.13706 7.73602 6.08627 11.8172 6.2995C11.7411 5.93402 11.6954 5.55335 11.6954 5.17263C11.6954 2.46194 13.8883 0.253845 16.6141 0.253845C18.0304 0.253845 19.3095 0.847752 20.208 1.80714C21.3197 1.59395 22.3857 1.18277 23.3299 0.61933C22.9643 1.76149 22.1877 2.72088 21.1674 3.32997C22.1573 3.22342 23.1167 2.94925 23.9999 2.56858C23.33 3.54316 22.4924 4.41114 21.533 5.11169V5.11169Z" fill="#263238"/>
</svg>
